<?xml version="1.0" encoding="UTF-8"?>
<svg id="Layer_1" xmlns="http://www.w3.org/2000/svg" version="1.1" xmlns:xlink="http://www.w3.org/1999/xlink" viewBox="0 0 259.3 200">
  <!-- Generator: Adobe Illustrator 29.5.1, SVG Export Plug-In . SVG Version: 2.1.0 Build 141)  -->
  <defs>
    <style>
      .st0 {
        fill: #fff;
      }

      .st1 {
        fill: url(#linear-gradient);
      }
    </style>
    <linearGradient id="linear-gradient" x1="129.98" y1="198.88" x2="129.98" y2="1.12" gradientUnits="userSpaceOnUse">
      <stop offset="0" stop-color="#c05027"/>
      <stop offset="1" stop-color="#ef5123"/>
    </linearGradient>
  </defs>
  <path class="st1" d="M257.98,113.7c0,11.74-1.31,23.78-3.93,36.14-3.65,17.09-8.99,29.11-11.03,33.41-.26.54-.52,1.07-.52,1.07-3.1,6.38-6.05,11.19-8.3,14.56-7.4-3.71-20.19-9.37-36.81-12.7-65.05-13.01-108.17,25.97-150.15,2.02-11.1-6.33-18.86-15.2-21.87-18.68-4.58-5.31-20.77-25.2-23.1-54.89-1.56-19.85,3.71-35.18,6.09-43.1,4.09-13.58,11.11-25.7,21.08-36.34,9.97-10.64,23.73-19.02,41.3-25.05C88.29,4.13,110.5,1.12,137.32,1.12c15.58,0,30.57,1.8,44.98,5.32,14.39,3.57,27.26,9.59,38.58,18.11,11.35,8.46,20.35,19.94,27.05,34.47,6.69,14.55,10.06,32.77,10.06,54.68Z"/>
  <path class="st0" d="M149.96,105.62l3.42-22.28h-21.38v-14.46c0-6.1,2.98-12.04,12.56-12.04h9.72v-18.97s-8.82-1.51-17.25-1.51c-17.61,0-29.12,10.67-29.12,29.99v16.98h-19.57v22.28h19.57v53.86c3.92.62,7.95.94,12.05.94s8.12-.32,12.05-.94v-53.86h17.96Z"/>
</svg>