<?xml version="1.0" encoding="UTF-8"?>
<svg id="Layer_1" xmlns="http://www.w3.org/2000/svg" version="1.1" xmlns:xlink="http://www.w3.org/1999/xlink" viewBox="0 0 259.3 200">
  <!-- Generator: Adobe Illustrator 29.5.1, SVG Export Plug-In . SVG Version: 2.1.0 Build 141)  -->
  <defs>
    <style>
      .st0 {
        fill: #fff;
      }

      .st1 {
        fill: url(#linear-gradient);
      }
    </style>
    <linearGradient id="linear-gradient" x1="129.42" y1="198.88" x2="129.42" y2="1.12" gradientUnits="userSpaceOnUse">
      <stop offset="0" stop-color="#c05027"/>
      <stop offset="1" stop-color="#ef5123"/>
    </linearGradient>
  </defs>
  <path class="st1" d="M257.42,113.7c0,11.74-1.31,23.78-3.93,36.14-3.65,17.09-8.99,29.11-11.03,33.41-.26.54-.52,1.07-.52,1.07-3.1,6.38-6.05,11.19-8.3,14.56-7.4-3.71-20.19-9.37-36.81-12.7-65.05-13.01-108.17,25.97-150.15,2.02-11.1-6.33-18.86-15.2-21.87-18.68-4.58-5.31-20.77-25.2-23.1-54.89-1.56-19.85,3.71-35.18,6.09-43.1,4.09-13.58,11.11-25.7,21.08-36.34,9.97-10.64,23.73-19.02,41.3-25.05C87.73,4.13,109.94,1.12,136.76,1.12c15.58,0,30.57,1.8,44.98,5.32,14.39,3.57,27.26,9.59,38.58,18.11,11.35,8.46,20.35,19.94,27.05,34.47,6.69,14.55,10.06,32.77,10.06,54.68Z"/>
  <g>
    <path class="st0" d="M163.11,59.09c-4.12,0-7.46,3.34-7.46,7.46s3.34,7.46,7.46,7.46,7.46-3.34,7.46-7.46c0-4.12-3.34-7.46-7.46-7.46Z"/>
    <path class="st0" d="M129.95,68.66c-17.28,0-31.34,14.06-31.34,31.34s14.06,31.34,31.34,31.34,31.34-14.06,31.34-31.34-14.06-31.34-31.34-31.34ZM129.95,120.08c-11.07,0-20.08-9.01-20.08-20.08s9.01-20.08,20.08-20.08,20.07,9.01,20.07,20.08-9,20.08-20.07,20.08Z"/>
    <path class="st0" d="M154.83,163.63h-50.81c-21.08,0-38.23-17.15-38.23-38.23v-50.82c0-21.08,17.15-38.23,38.23-38.23h50.81c21.08,0,38.23,17.15,38.23,38.23v50.81c0,21.08-17.15,38.23-38.23,38.23ZM104.02,48.34c-14.48,0-26.25,11.78-26.25,26.25v50.81c0,14.48,11.78,26.25,26.25,26.25h50.81c14.48,0,26.26-11.78,26.26-26.25v-50.81c0-14.48-11.78-26.25-26.26-26.25h-50.81Z"/>
  </g>
</svg>