<?xml version="1.0" encoding="UTF-8"?>
<svg id="Layer_1" xmlns="http://www.w3.org/2000/svg" version="1.1" xmlns:xlink="http://www.w3.org/1999/xlink" viewBox="0 0 259.3 200">
  <!-- Generator: Adobe Illustrator 29.5.1, SVG Export Plug-In . SVG Version: 2.1.0 Build 141)  -->
  <defs>
    <style>
      .st0 {
        fill: #fff;
      }

      .st1 {
        fill: url(#linear-gradient);
      }
    </style>
    <linearGradient id="linear-gradient" x1="129.99" y1="1.12" x2="129.99" y2="198.88" gradientTransform="translate(0 200) scale(1 -1)" gradientUnits="userSpaceOnUse">
      <stop offset="0" stop-color="#c05027"/>
      <stop offset="1" stop-color="#ef5123"/>
    </linearGradient>
  </defs>
  <path class="st1" d="M257.98,113.7c0,11.74-1.31,23.78-3.93,36.14-3.65,17.09-8.99,29.11-11.03,33.41-.26.54-.52,1.07-.52,1.07-3.1,6.38-6.05,11.19-8.3,14.56-7.4-3.71-20.19-9.37-36.81-12.7-65.05-13.01-108.17,25.97-150.15,2.02-11.1-6.33-18.86-15.2-21.87-18.68-4.58-5.31-20.77-25.2-23.1-54.89-1.56-19.85,3.71-35.18,6.09-43.1,4.09-13.58,11.11-25.7,21.08-36.34s23.73-19.02,41.3-25.05C88.29,4.13,110.5,1.12,137.32,1.12c15.58,0,30.57,1.8,44.98,5.32,14.39,3.57,27.26,9.59,38.58,18.11,11.35,8.46,20.35,19.94,27.05,34.47,6.69,14.55,10.06,32.77,10.06,54.68h-.01Z"/>
  <g>
    <path class="st0" d="M194.49,102.74c-1.09-10.77-4.08-22.08-14.25-27.57-7.57-4.09-19.75-4.83-27.89-2.22-6.68,2.15-11.69,6.43-15.52,12.21v-11.25l-.47-.47h-25.51v86.81h26.93v-45.47c.5-10.03,3.11-19.13,14.72-19.8,10.2-.59,14.04,5.47,15.06,14.75l.32,50.21h26.93l-.32-57.18Z"/>
    <rect class="st0" x="67.13" y="73.42" width="26.93" height="86.81"/>
    <path class="st0" d="M78.79,30.43c-21.78,2.4-15.73,36.53,6.02,30.73,17.88-4.77,13.24-32.86-6.02-30.73Z"/>
  </g>
</svg>